# xmcd
#
# Track frame offsets:
#	300
#	14242
#	30624
#	48564
#	69859
#	87944
#	106423
#	126261
#	140188
#	154130
#	170512
#	188452
#	209747
#	227832
#	246311
#	266149
#
# Disc length: 3732 seconds
#
# Revision: 1
# Processed by: cddbd v1.5.1PL0 Copyright (c) Steve Scherf et al.
# Submitted via: audiograbber 1.83.01
#
DISCID=f10e9010
DTITLE=Karaoke Party - mkp25490
DYEAR=1900
DGENRE=
TTITLE0=George Strait - She'll Leave You With a Smile
TTITLE1=Lee Ann Womack - I'll Think of a Reason Later
TTITLE2=Keith Urban - Somebody Like You
TTITLE3=Martina Mc Bride - Where Would You Be
TTITLE4=Dixie Chicks - Landslide
TTITLE5=Lonestar - Not a Day Goes By
TTITLE6=Alan Jackson - Work in Progress
TTITLE7=Brooks and Dunn - My Heart is Lost to You
TTITLE8=George Strait - She'll Leave You With a Smile w/vocals
TTITLE9=Lee Ann Womack - I'll Think of a Reason Later w/vocals
TTITLE10=Keith Urban - Somebody Like You w/vocals
TTITLE11=Martina Mc Bride - Where Would You Be w/vocals
TTITLE12=Dixie Chicks - Landslide w/vocals
TTITLE13=Lonestar - Not a Day Goes By w/vocals
TTITLE14=Alan Jackson - Work in Progress w/vocals
TTITLE15=Brooks and Dunn - My Heart is Lost to You w/vocals
EXTD=
EXTT0=
EXTT1=
EXTT2=
EXTT3=
EXTT4=
EXTT5=
EXTT6=
EXTT7=
EXTT8=
EXTT9=
EXTT10=
EXTT11=
EXTT12=
EXTT13=
EXTT14=
EXTT15=
PLAYORDER=
